<?xml version="1.0" encoding="UTF-8" standalone="no"?>
<!-- Created with Inkscape (http://www.inkscape.org/) -->

<svg
   xmlns:dc="http://purl.org/dc/elements/1.1/"
   xmlns:cc="http://creativecommons.org/ns#"
   xmlns:rdf="http://www.w3.org/1999/02/22-rdf-syntax-ns#"
   xmlns:svg="http://www.w3.org/2000/svg"
   xmlns="http://www.w3.org/2000/svg"
   xmlns:xlink="http://www.w3.org/1999/xlink"
   xmlns:sodipodi="http://sodipodi.sourceforge.net/DTD/sodipodi-0.dtd"
   xmlns:inkscape="http://www.inkscape.org/namespaces/inkscape"
   version="1.1"
   width="151"
   height="133"
   id="svg9291"
   inkscape:version="0.48.2 r9819"
   sodipodi:docname="ciboulette.svg">
  <sodipodi:namedview
     pagecolor="#ffffff"
     bordercolor="#666666"
     borderopacity="1"
     objecttolerance="10"
     gridtolerance="10"
     guidetolerance="10"
     inkscape:pageopacity="0"
     inkscape:pageshadow="2"
     inkscape:window-width="640"
     inkscape:window-height="480"
     id="namedview54"
     showgrid="false"
     inkscape:zoom="1.7744361"
     inkscape:cx="75.5"
     inkscape:cy="66.5"
     inkscape:window-x="223"
     inkscape:window-y="26"
     inkscape:window-maximized="0"
     inkscape:current-layer="svg9291" />
  <defs
     id="defs9293">
    <inkscape:path-effect
       effect="skeletal"
       id="path-effect3869" />
    <inkscape:path-effect
       effect="skeletal"
       id="path-effect3865" />
    <inkscape:path-effect
       effect="spiro"
       id="path-effect3022" />
    <inkscape:path-effect
       effect="spiro"
       id="path-effect3018" />
    <inkscape:path-effect
       effect="spiro"
       id="path-effect3014" />
    <inkscape:path-effect
       effect="spiro"
       id="path-effect3010" />
    <inkscape:path-effect
       effect="spiro"
       id="path-effect3006" />
    <path
       d="m 1480.5382,-458.53789 c 8.5753,-22.50321 23.2148,-42.66257 41.9598,-57.78063 17.8381,-14.38666 39.3461,-24.18474 61.9078,-28.20245"
       id="path3020-6"
       style="fill:none;stroke:#ffffff;stroke-width:1px;stroke-linecap:butt;stroke-linejoin:miter;stroke-opacity:1" />
    <inkscape:path-effect
       effect="skeletal"
       id="path-effect3869-6" />
    <inkscape:path-effect
       effect="skeletal"
       id="path-effect3865-0" />
    <inkscape:path-effect
       effect="skeletal"
       id="path-effect3869-1" />
    <inkscape:path-effect
       effect="skeletal"
       id="path-effect3869-6-5" />
    <inkscape:path-effect
       effect="skeletal"
       id="path-effect3865-0-4" />
    <inkscape:path-effect
       effect="skeletal"
       id="path-effect3865-5" />
    <path
       d="m 1480.5382,-458.53789 c 8.5753,-22.50321 23.2148,-42.66257 41.9598,-57.78063 17.8381,-14.38666 39.3461,-24.18474 61.9078,-28.20245"
       id="path3020-6-2"
       style="fill:none;stroke:#ffffff;stroke-width:1px;stroke-linecap:butt;stroke-linejoin:miter;stroke-opacity:1" />
    <path
       d="m 1480.5382,-458.53789 c 8.5753,-22.50321 23.2148,-42.66257 41.9598,-57.78063 17.8381,-14.38666 39.3461,-24.18474 61.9078,-28.20245"
       id="path3020-6-4"
       style="fill:none;stroke:#ffffff;stroke-width:1px;stroke-linecap:butt;stroke-linejoin:miter;stroke-opacity:1" />
    <path
       d="m 1480.5382,-458.53789 c 8.5753,-22.50321 23.2148,-42.66257 41.9598,-57.78063 17.8381,-14.38666 39.3461,-24.18474 61.9078,-28.20245"
       id="path3020-6-4-2"
       style="fill:none;stroke:#ffffff;stroke-width:1px;stroke-linecap:butt;stroke-linejoin:miter;stroke-opacity:1" />
    <mask
       id="mask4067">
      <text
         transform="matrix(0.99999055,0.00434576,-0.00434576,0.99999055,-2.9612204,-9.0207073)"
         id="text4069"
         xml:space="preserve"
         style="font-size:40px;font-style:normal;font-weight:normal;line-height:125%;letter-spacing:0px;word-spacing:0px;color:#000000;fill:#ffffff;fill-opacity:1;fill-rule:nonzero;stroke:none;stroke-width:0.31177616;marker:none;visibility:visible;display:inline;overflow:visible;enable-background:accumulate;font-family:Sans"><textPath
           xlink:href="#path3020-6-4-2"
           id="textPath4071"
           style="font-size:26px;font-weight:bold;color:#000000;fill:#ffffff;fill-opacity:1;fill-rule:nonzero;stroke:none;stroke-width:0.31177616;marker:none;visibility:visible;display:inline;overflow:visible;enable-background:accumulate;-inkscape-font-specification:Sans Bold">ciboulette</textPath></text>
    </mask>
    <mask
       id="mask4067-1">
      <text
         transform="matrix(0.99999055,0.00434576,-0.00434576,0.99999055,-2.9612204,-9.0207073)"
         id="text4069-5"
         xml:space="preserve"
         style="font-size:40px;font-style:normal;font-weight:normal;line-height:125%;letter-spacing:0px;word-spacing:0px;color:#000000;fill:#ffffff;fill-opacity:1;fill-rule:nonzero;stroke:none;stroke-width:0.31177616;marker:none;visibility:visible;display:inline;overflow:visible;enable-background:accumulate;font-family:Sans"><textPath
           xlink:href="#path3020-6-4-2-8"
           id="textPath4071-5"
           style="font-size:26px;font-weight:bold;color:#000000;fill:#ffffff;fill-opacity:1;fill-rule:nonzero;stroke:none;stroke-width:0.31177616;marker:none;visibility:visible;display:inline;overflow:visible;enable-background:accumulate;-inkscape-font-specification:Sans Bold">ciboulette</textPath></text>
    </mask>
    <path
       d="m 1480.5382,-458.53789 c 8.5753,-22.50321 23.2148,-42.66257 41.9598,-57.78063 17.8381,-14.38666 39.3461,-24.18474 61.9078,-28.20245"
       id="path3020-6-4-2-8"
       style="fill:none;stroke:#ffffff;stroke-width:1px;stroke-linecap:butt;stroke-linejoin:miter;stroke-opacity:1" />
    <inkscape:path-effect
       effect="skeletal"
       id="path-effect3865-5-7" />
    <inkscape:path-effect
       effect="skeletal"
       id="path-effect3869-1-5" />
    <inkscape:path-effect
       effect="skeletal"
       id="path-effect3865-0-4-2" />
    <inkscape:path-effect
       effect="skeletal"
       id="path-effect3869-6-5-6" />
  </defs>
  <g
     transform="translate(-107.19121,-169.67506)"
     id="layer1">
    <g
       transform="translate(-1359.3619,726.81972)"
       id="g5462"
       style="display:inline">
      <path
         d="m 1571.9326,-434.1309 c 0,0 -3.7198,6.88492 1.912,6.48302 5.6317,-0.40191 16.9144,-12.3549 21.8817,-7.6186 2.4794,2.36407 5.3781,-15.98065 5.3781,-15.98065 0,0 17.2583,8.58979 15.0864,6.48746 -14.7016,-14.23043 -14.7605,-22.33111 -14.7605,-22.33111 l -29.4977,32.95988 z"
         id="path4336"
         style="fill:#332431;fill-opacity:1;stroke-width:1px" />
      <path
         d="m 1577.074,-444.1697 c -0.053,-2.4155 1.6731,-0.0761 1.9154,0.54156 0.6763,1.72452 -4.2911,3.52781 -2.894,4.74418 0.7887,0.68671 2.6853,-0.97331 2.428,-1.98694 -0.078,-0.3055 -0.8072,-0.46799 -0.9289,-0.17723 -1.295,3.09453 5.0259,6.52259 8.2823,5.71695 3.0562,-0.75611 3.4897,-5.34939 4.3746,-8.3708 0.5185,-1.77005 2.2852,-5.09776 0.4879,-5.51169 -3.1682,-0.72964 -3.2621,5.86879 -3.4764,9.11286 -0.1309,1.98242 3.232,5.09785 1.3734,5.79982 -1.4946,0.56449 -1.3444,-2.91649 -2.2545,-4.22953 -1.8468,-2.66424 -6.2773,-4.05724 -6.4309,-7.2953 -0.082,-1.73475 2.6126,-2.53884 3.0597,-4.21701 0.2951,-1.10745 0.7787,-3.38821 -0.367,-3.41861 -7.9085,-0.20983 4.0575,24.50079 -3.7811,23.43088 -5.6538,-0.7717 0.3709,-11.51556 1.9016,-17.01262 0.5665,-2.03447 1.2612,-4.16445 2.6516,-5.75402 1.1726,-1.34055 2.7395,-3.03719 4.5119,-2.86211 2.9567,0.29208 4.4441,3.96038 6.4469,6.1549 2.0914,2.2916 2.8559,8.30748 5.7867,7.28991 1.6138,-0.56029 0.021,-3.41653 0.013,-5.12478 -0.017,-3.7892 -0.2606,-7.58006 -0.1285,-11.367 0.065,-1.86342 2.0584,-4.62754 0.4527,-5.57529 -1.3646,-0.80541 -3.1095,1.2909 -3.9621,2.62648 -1.7607,2.75809 -3.4919,7.12755 -1.4759,9.70492 1.4582,1.86428 6.1674,2.84229 7.0703,0.65444 0.664,-1.60881 -2.33,-2.93146 -4.0252,-3.32557 -3.4958,-0.81271 -9.8794,-1.0464 -10.4745,2.49294 -0.673,4.00297 6.8321,8.69161 10.2732,6.5386 1.6529,-1.03418 0.1171,-4.02588 -0.6664,-5.8113 -1.1476,-2.61488 -2.8077,-5.89857 -5.6034,-6.48025 -1.4502,-0.30172 -3.1492,0.7148 -4.006,1.9231 -1.5853,2.23595 -0.9469,5.43228 -0.9052,8.17294 0.075,4.9349 6.8258,13.31673 2.0767,14.66006 -4.354,1.23156 -0.9578,-13.20619 -5.4183,-12.44628 -3.4699,0.59114 -0.744,7.01165 -0.7714,10.53141 -0.01,1.17057 1.3651,3.37351 0.2021,3.50601 -5.2027,0.59271 -5.7582,-11.27259 -2.6469,-15.48425 2.4287,-3.28758 9.5542,-4.72589 12.1604,-1.57711 1.053,1.27226 -1.3747,3.06488 -1.5444,4.70763 -0.2834,2.74232 3.419,7.06301 0.9165,8.21983 -0.6858,0.31701 -1.1202,-1.03154 -1.5532,-1.6507 -1.4066,-2.01172 -2.1063,-4.43874 -3.3053,-6.58076 -0.305,-0.54488 -1.4629,-1.18733 -0.9873,-1.59201 3.4013,-2.89442 6.3296,11.17022 10.1102,8.79236 0.3719,-0.23393 -0.1238,-0.89374 -0.3489,-1.27107 -1.2848,-2.15398 -3.7333,-3.36043 -5.4379,-5.2002 -0.062,-0.0665 -0.2386,-0.14827 -0.1725,-0.21041 1.9233,-1.80884 3.2043,5.84014 5.8057,5.38837 1.7627,-0.30612 2.1146,-3.01089 2.4725,-4.76382 0.6269,-3.07022 -0.3294,-6.26362 -0.7133,-9.37357 -0.2888,-2.33962 0.9517,-5.99484 -1.1943,-6.97055 -1.7803,-0.80946 -3.6957,1.60577 -5.009,3.05487 -1.6788,1.85244 -2.4379,4.39371 -3.2583,6.75527 -0.631,1.81645 -1.007,3.72378 -1.255,5.63068 -0.2849,2.19111 0.4556,4.53319 -0.2604,6.62357 -0.2633,0.7689 -0.6181,1.83902 -1.4179,1.98355 -5.2868,0.95532 -8.554,-11.38568 -13.3688,-9.00227 -2.161,1.0697 -0.532,4.81225 -0.4256,7.22112 0.1043,2.35879 -0.9978,5.81189 1.0387,7.00671 3.593,2.10809 8.5341,-1.70664 11.6854,-4.43113 1.9254,-1.66459 3.0102,-4.22639 3.7108,-6.67325 1.2749,-4.45238 4.683,-11.5161 0.6982,-13.87639 -1.8975,-1.12394 -4.0762,1.90688 -5.635,3.46689 -1.7783,1.77958 -3.9151,3.91555 -3.9502,6.43108 -0.054,3.85925 1.9436,9.6319 5.7825,10.0316 3.0789,0.32057 4.2426,-4.51617 6.1958,-6.91779 1.514,-1.86171 2.6891,-3.99068 4.2711,-5.79501 1.2884,-1.46948 2.2949,-3.75444 4.2243,-4.0657 2.6416,-0.42617 4.8125,2.34128 7.2407,3.4653 2.4139,1.11738 4.6474,2.90809 7.2841,3.25889 0.6593,0.0877 1.7495,0.31685 1.9709,-0.31025 0.8757,-2.48109 -3.5989,-0.25655 -5.299,-5.85029 -1.0426,-3.43034 -6.0643,-3.98439 -8.4344,-6.67453 -1.0036,-1.13909 -2.6209,-2.26515 -2.3538,-3.89901"
         id="path4341"
         style="fill:none;stroke:#332431;stroke-width:2.64437151;stroke-miterlimit:4;stroke-opacity:1;stroke-dasharray:none" />
      <path
         d="m 1590.2064,-531.89462 c 22.6517,27.00269 19.3709,67.06281 -7.3263,89.4583 -26.6971,22.39547 -66.7174,18.65928 -89.3691,-8.34341 -0.7896,-17.63453 83.7975,-79.76098 96.6954,-81.11489 z"
         id="path4343"
         style="color:#000000;fill:#9058a4;fill-opacity:1;fill-rule:nonzero;stroke:none;stroke-width:3.21698618;marker:none;visibility:visible;display:inline;overflow:visible;enable-background:accumulate" />
      <path
         d="m 1515.7318,-449.66346 c 12.8985,-3.77948 23.8491,-5.55068 32.9766,-14.83274 -0.9064,23.81742 10.0919,28.08538 42.7128,12.41381 -35.7653,37.2692 -52.7244,18.45168 -75.6894,2.41893 z"
         id="path4361"
         style="color:#000000;fill:#7d4698;fill-opacity:1;fill-rule:nonzero;stroke:none;stroke-width:3.21698618;marker:none;visibility:visible;display:inline;overflow:visible;enable-background:accumulate" />
      <path
         d="m 1592.7701,-528.01179 c 0.042,12.38593 -0.6294,9.55788 -4.2423,19.06017 19.1123,-2.03815 15.4428,38.29552 2.3937,56.86991 21.056,-30.14425 15.3274,-54.52023 1.8486,-75.93008 z"
         id="path4364"
         style="fill:#9e85b2;fill-opacity:1;stroke-width:1px" />
      <path
         d="m -84,225.5 a 79.5,84.5 0 1 1 -159,0 79.5,84.5 0 1 1 159,0 z"
         transform="matrix(-0.61217152,0.51353234,0.19210943,0.22900978,1398.448,-459.01635)"
         id="path4345"
         style="color:#000000;fill:#ffe1b8;fill-opacity:1;fill-rule:nonzero;stroke:#5e3f6d;stroke-width:4.37786198;stroke-linecap:butt;stroke-linejoin:miter;stroke-miterlimit:4;stroke-opacity:1;stroke-dasharray:none;stroke-dashoffset:0;marker:none;visibility:visible;display:inline;overflow:visible;enable-background:accumulate" />
      <path
         d="m -84,225.5 a 79.5,84.5 0 1 1 -159,0 79.5,84.5 0 1 1 159,0 z"
         transform="matrix(-0.47639725,0.39963538,0.14950125,0.17821742,1429.7036,-467.94095)"
         id="path4347"
         style="color:#000000;fill:#e4c9a4;fill-opacity:1;fill-rule:nonzero;stroke:none;stroke-width:3;marker:none;visibility:visible;display:inline;overflow:visible;enable-background:accumulate" />
      <path
         d="m -84,225.5 a 79.5,84.5 0 1 1 -159,0 79.5,84.5 0 1 1 159,0 z"
         transform="matrix(-0.41837191,0.34430129,0.13072063,0.15286012,1442.9127,-472.6672)"
         id="path4349"
         style="color:#000000;fill:#ffe1b8;fill-opacity:1;fill-rule:nonzero;stroke:none;stroke-width:3;marker:none;visibility:visible;display:inline;overflow:visible;enable-background:accumulate" />
      <path
         d="m -84,225.5 a 79.5,84.5 0 1 1 -159,0 79.5,84.5 0 1 1 159,0 z"
         transform="matrix(-0.30035401,0.25195799,0.094256,0.11236067,1468.4826,-479.87577)"
         id="path4351"
         style="color:#000000;fill:#e4c9a4;fill-opacity:1;fill-rule:nonzero;stroke:none;stroke-width:3;marker:none;visibility:visible;display:inline;overflow:visible;enable-background:accumulate" />
      <path
         d="m -84,225.5 a 79.5,84.5 0 1 1 -159,0 79.5,84.5 0 1 1 159,0 z"
         transform="matrix(-0.2637708,0.21707153,0.08241539,0.09637367,1476.8106,-482.85553)"
         id="path4353"
         style="color:#000000;fill:#ffe1b8;fill-opacity:1;fill-rule:nonzero;stroke:none;stroke-width:3;marker:none;visibility:visible;display:inline;overflow:visible;enable-background:accumulate" />
      <path
         d="m -84,225.5 a 79.5,84.5 0 1 1 -159,0 79.5,84.5 0 1 1 159,0 z"
         transform="matrix(-0.1499885,0.12582086,0.04706884,0.05610982,1502.0027,-490.17302)"
         id="path4355"
         style="color:#000000;fill:#e4c9a4;fill-opacity:1;fill-rule:nonzero;stroke:none;stroke-width:3;marker:none;visibility:visible;display:inline;overflow:visible;enable-background:accumulate" />
      <path
         d="m -84,225.5 a 79.5,84.5 0 1 1 -159,0 79.5,84.5 0 1 1 159,0 z"
         transform="matrix(-0.13171986,0.10839953,0.04115598,0.04812635,1506.1614,-491.66103)"
         id="path4357"
         style="color:#000000;fill:#ffe1b8;fill-opacity:1;fill-rule:nonzero;stroke:none;stroke-width:3;marker:none;visibility:visible;display:inline;overflow:visible;enable-background:accumulate" />
      <path
         d="m 1499.146,-446.49994 c 12.1771,2.26546 14.5132,-1.50958 24.5098,-3.3573 4.8938,11.51743 16.4329,19.93972 49.9596,13.87939 -33.4353,15.30057 -55.828,6.58218 -74.4694,-10.52209 z"
         id="path4359"
         style="fill:#5e3f6d;fill-opacity:1;stroke-width:1px" />
      <path
         d="m 1538.7321,-458.12914 -5.4379,2.85044 c 14.5282,8.75697 30.0783,14.42708 48.2455,12.19165 -13.2894,0.64754 -26.9957,-1.11401 -42.8076,-15.04209 z"
         id="path4366"
         style="fill:#5e3f6d;fill-opacity:1;stroke-width:1px" />
      <path
         d="m 1563.4458,-475.26091 -2.9597,2.67623 c 15.4866,6.85163 20.1253,8.5329 32.0567,18.69511 -10.5673,-10.85611 -12.1577,-12.20804 -29.097,-21.37134 z"
         id="path4368"
         style="color:#000000;fill:#9e85b2;fill-opacity:1;fill-rule:nonzero;stroke-width:1px;stroke-linecap:butt;stroke-linejoin:miter;stroke-miterlimit:4;stroke-opacity:1;stroke-dasharray:none;stroke-dashoffset:0;marker:none;visibility:visible;display:inline;overflow:visible;enable-background:accumulate" />
      <path
         d="m 1548.8557,-427.20644 c -19.5924,1.9364 -39.8386,-5.1322 -54.159,-20.6311 -0.9227,-0.59195 -1.7269,-1.31123 -2.4219,-2.13991 -9.1173,-10.86842 5.6505,-38.25554 32.984,-61.18485 27.3335,-22.9293 56.8651,-32.72039 65.9823,-21.85197 0.697,0.83084 1.2593,1.75849 1.6823,2.77314 0.01,0.0223 0.021,0.0436 0.03,0.066 20.7645,27.37888 16.8392,66.32979 -9.4779,88.40645 -10.1811,8.54051 -22.2744,13.34206 -34.62,14.56225 z"
         id="path4370"
         style="color:#000000;fill:none;stroke:#332431;stroke-width:3.4000001;stroke-linecap:butt;stroke-linejoin:miter;stroke-miterlimit:4;stroke-opacity:1;stroke-dasharray:none;stroke-dashoffset:0;marker:none;visibility:visible;display:inline;overflow:visible;enable-background:accumulate" />
      <path
         d="m 1514.1787,-448.41346 -3.3035,2.43977 c 10.6205,10.42596 26.2064,18.32106 61.8717,8.91352 -30.8103,5.36152 -48.2314,1.71252 -58.5682,-11.35329 z"
         id="path4372"
         style="opacity:0.49444442;color:#000000;fill:#7d4698;fill-opacity:1;fill-rule:nonzero;stroke:none;stroke-width:3.21698618;marker:none;visibility:visible;display:inline;overflow:visible;enable-background:accumulate" />
      <g
         transform="matrix(0.93379516,0,0,0.93073738,99.86376,-36.088035)"
         id="g3853" />
    </g>
  </g>
  <metadata
     id="metadata3021">
    <rdf:RDF>
      <cc:Work>
        <dc:format>image/svg+xml</dc:format>
        <dc:type
           rdf:resource="http://purl.org/dc/dcmitype/StillImage" />
        <cc:license
           rdf:resource="http://creativecommons.org/licenses/publicdomain/" />
        <dc:publisher>
          <cc:Agent
             rdf:about="http://openclipart.org/">
            <dc:title>Open Clip Art Library</dc:title>
          </cc:Agent>
        </dc:publisher>
        <dc:title />
        <dc:date>2013-03-02T14:16:41</dc:date>
        <dc:description>A cartoon style cut onion. Originally an asset for hedgewars.org.</dc:description>
        <dc:source>http://openclipart.org/detail/175418/cut-onion-by-mray-175418</dc:source>
        <dc:creator>
          <cc:Agent>
            <dc:title>mray</dc:title>
          </cc:Agent>
        </dc:creator>
        <dc:subject>
          <rdf:Bag>
            <rdf:li>cartoon</rdf:li>
            <rdf:li>clip art</rdf:li>
            <rdf:li>clipart</rdf:li>
            <rdf:li>cut</rdf:li>
            <rdf:li>fresh</rdf:li>
            <rdf:li>hedgewars</rdf:li>
            <rdf:li>onion</rdf:li>
            <rdf:li>tears</rdf:li>
            <rdf:li>vegetable</rdf:li>
          </rdf:Bag>
        </dc:subject>
      </cc:Work>
      <cc:License
         rdf:about="http://creativecommons.org/licenses/publicdomain/">
        <cc:permits
           rdf:resource="http://creativecommons.org/ns#Reproduction" />
        <cc:permits
           rdf:resource="http://creativecommons.org/ns#Distribution" />
        <cc:permits
           rdf:resource="http://creativecommons.org/ns#DerivativeWorks" />
      </cc:License>
    </rdf:RDF>
  </metadata>
</svg>
